<?xml version="1.0" encoding="UTF-8"?>
<svg width="512" height="512" version="1.1" viewBox="0 0 512 512" xml:space="preserve" xmlns="http://www.w3.org/2000/svg"><g fill="#fffdff"><path d="m29.7 72.42 66.27 0.01062-31.43-52.7z" style="paint-order:fill markers stroke"/><path d="m230.4 241.9 55.55-32.33 61.93 35.38-1.88 70.11-43.06 24.37-31 1.971-45.99-30.11z" style="paint-order:fill markers stroke"/><path d="m210.3 297.2 6.773-70.26 65.83-37.26 73.45 40.58 10.5 84.4 17.63-80.74-26.15-48.29-63.65-29.75-66.29 18.52-45.08 53.78 24.41 77.13" style="paint-order:fill markers stroke"/><path d="m43.63 263.4 104.3 236.7 111.4-118.4-158.7-140.4-3.838 21.2z" style="paint-order:fill markers stroke"/><path d="m303.8 358.5-140.5 145.9 170.1-4.956 45.6-103.4 9.312-24.58z" style="paint-order:fill markers stroke"/><path d="m390.2 286.7 59.28-8.03-50.45-33.89z" style="paint-order:fill markers stroke"/><path d="m387.1 192.8 29.37-61.31-58.64 24.77z" style="paint-order:fill markers stroke"/><path d="m310.4 140.4-20-62.37-22.31 61.93z" style="paint-order:fill markers stroke"/><path d="m225.7 154.4-73.35-30.21 34.77 71.78z" style="paint-order:fill markers stroke"/><path d="m169.4 233.8-36.18 29.96 49.8 12.63z" style="paint-order:fill markers stroke"/><path d="m6.942 84.16 6.805 28.74 20.61-10.99 33.75 22.23-0.01244 64.34-33.01 13.31 9.945 45.69 41.11 2.25 29.76-165.3z" style="paint-order:fill markers stroke"/><path d="m354.5 497.9 80.29-3.724-16.57-49.68 53.74-28.74 19.2 17.23 15.42-80.43-88.69 0.6054z" style="paint-order:fill markers stroke"/><path d="m471.8 430.3-39.48 19.69 17.53 38.27 38.16 7.983 15.34-33.05z" style="paint-order:fill markers stroke"/><path d="m7.228 132.6 26.98-18.58 24.48 17.52-0.1676 48.92-30.92 10-22.44-15.77z" style="paint-order:fill markers stroke"/></g></svg>
