<?xml version="1.0" encoding="UTF-8"?>
<svg width="512" height="512" version="1.1" viewBox="0 0 512 512" xml:space="preserve" xmlns="http://www.w3.org/2000/svg"><g><path d="m163 506.6c3.019-2.947 32.49-30.57 65.49-61.39s70.12-66.21 82.49-78.64l22.49-22.61h9.17c17.32 0 32.22 4.456 44.71 13.36 6.721 4.796 17.64 16.08 17.64 18.23 0 0.6876-1.433 1.565-3.185 1.95-1.911 0.4197-5.212 2.752-8.25 5.829-4.813 4.875-5.535 6.366-14.52 30.01-5.201 13.68-9.571 24.48-9.711 24-0.1402-0.485-1.886-13.26-3.879-28.38-2.135-16.2-4.211-28.42-5.052-29.73-2.797-4.378-10.1-4.186-13.07 0.3431-1.612 2.461-1.426 4.558 4.133 46.42l5.822 43.84-5.763 15.31c-5.227 13.89-5.714 15.84-5.241 21.06l0.5217 5.754h-37.94c-36.28 0-37.9-0.079-36.97-1.807 5.931-11.08 58.1-124.9 58.1-126.8 0-5.602-7.795-9.348-12.53-6.021-1.128 0.7928-15.25 29.91-32.97 67.98l-31 66.59-95.98 0.0376zm203.5 4.204c-2.79-1.526-4.5-3.879-4.5-6.193 0-3.677 41.03-109.1 43.17-110.9 1.881-1.607 5.53-1.75 44.79-1.75h42.74l2.646 2.452c3.464 3.21 3.348 5.136-0.98 16.31-2.9 7.484-3.951 9.233-5.25 8.732-4.49-1.731-14.29-3.463-19.66-3.476-27.35-0.0669-51.51 24.09-51.45 51.45 0.0394 16.08 8.259 32.93 20.33 41.67l3.959 2.868-36.9-0.0304c-24.77-0.0204-37.56-0.39-38.9-1.124zm95.25-7.868c-10.54-2.66-19.75-10.38-24.42-20.48-2.354-5.082-2.778-7.3-2.77-14.5 8e-3 -7.168 0.4468-9.458 2.802-14.61 3.5-7.656 10.32-14.44 18.15-18.07 5.073-2.349 7.313-2.778 14.5-2.778s9.427 0.4292 14.5 2.778c7.829 3.625 14.65 10.41 18.15 18.07 2.359 5.161 2.793 7.431 2.793 14.61 0 7.18-0.4339 9.449-2.793 14.61-5.51 12.05-17.22 20.12-30.36 20.91-3.735 0.2241-8.48-0.0189-10.54-0.54zm-315.8-19.54-0.0269-16.94-34.44-44.69c-18.94-24.58-34.72-45.8-35.06-47.16-0.3401-1.355-0.0556-3.518 0.6321-4.807 1.523-2.853 62.68-81.57 64.01-82.4 0.5211-0.322 18.6 12.26 40.18 27.97l39.23 28.55 15.38 0.0403 13.61 22.65c7.485 12.46 13.7 22.98 13.81 23.38 0.1102 0.4004-25 24.23-55.8 52.96s-57.24 53.39-58.75 54.81l-2.75 2.575zm120.4-119.7c-5.037-8.388-9.085-15.33-8.996-15.42 0.0893-0.0924 2.637 0.5431 5.661 1.412 7.5 2.155 30.43 2.175 37.87 0.0324l5.374-1.548-15.36 15.39c-8.449 8.462-15.37 15.39-15.38 15.39-8e-3 0-4.136-6.862-9.173-15.25zm-200.3-54.49c-5.7-18.57-10.57-34.55-10.83-35.51-0.4296-1.611 0.7483-1.75 14.78-1.75 18.73 0 21.87-0.8244 28.52-7.466 6.183-6.183 6.727-7.968 9.463-31.03 1.174-9.9 2.454-18.82 2.845-19.83 0.4874-1.258 3.911 7.253 10.93 27.18 5.623 15.96 10.21 29.61 10.2 30.33-0.0186 1.18-49.63 65.76-53.84 70.08-1.621 1.664-2.264-0.0407-12.08-32zm318.9 28.04c-10.79-5.428-21.69-8.228-35-8.992-5.848-0.3356-10.83-1.09-11.23-1.703-0.4041-0.6051-0.7416-3.889-0.75-7.297l-0.0153-6.197 5.25-3.491c15.35-10.21 29.53-25.78 37.36-41.03 2.141-4.17 4.254-7.584 4.695-7.586 1.388-7e-3 6.641 12.32 7.708 18.09 0.5868 3.175 0.9081 17.63 0.7554 34l-0.2656 28.47zm-114.9-2.351c-12.42-2.223-27.74-11.1-36.57-21.18-5.869-6.706-12.18-19.41-14.07-28.33-0.9946-4.695-1.475-13.11-1.487-26.06l-0.0174-19.12 7.221-0.7116c9.255-0.912 19.83-4.283 28.31-9.029 8.228-4.601 19.77-15.41 24.47-22.9 1.925-3.074 3.725-5.589 4-5.589s2.075 2.515 4 5.589c4.505 7.194 15.81 17.85 24.04 22.66 8.073 4.72 19.34 8.346 28.86 9.283l7.31 0.7203-0.4487 22.11c-0.418 20.6-0.6255 22.61-3.036 29.45-7.006 19.86-21.85 34.55-41.59 41.14-7.385 2.466-22.76 3.444-31 1.971zm-72.64-27.56c-13.2-9.648-24.86-18.16-25.91-18.92-1.749-1.261-1.815-1.918-0.8078-7.999 1.113-6.716 6.359-19.47 8.009-19.47 0.4954 0 1.756 1.909 2.803 4.241 3.057 6.816 10.68 17.93 18.12 26.4 3.946 4.495 8.485 11.08 10.6 15.36 2.032 4.125 5.486 9.862 7.676 12.75s3.877 5.233 3.748 5.212c-0.1291-0.021-11.03-7.932-24.23-17.58zm-1.223-49.38c-7.571-15.22-9.739-24.9-9.631-43 0.0949-16.01 1.601-23.64 7.327-37.1 9.792-23.01 31.29-43.38 54.73-51.87 54.16-19.6 111.3 10.7 126.5 67.03 1.88 6.993 2.258 10.9 2.217 22.93-0.0599 17.76-2.664 28.95-10.06 43.21l-4.818 9.29-0.5561-25c-0.6239-28.05-1.368-32.36-7.955-46.08-9.998-20.82-29.45-36.93-51.99-43.06-9.045-2.461-30.95-2.461-40 0-22.54 6.134-41.99 22.24-51.99 43.06-6.587 13.71-7.331 18.03-7.955 46.08l-0.5561 25zm-151.6-4.254c-1.969-1.969-2.538-4.591-4.502-20.75-1.236-10.17-2.502-19.96-2.812-21.75-0.5452-3.14-0.4494-3.25 2.837-3.25 1.871 0 5.978-0.6712 9.128-1.492 17.34-4.517 30.67-17.8 35.16-35.05 1.969-7.561 2.078-30.91 0.1777-38.24l-1.354-5.218h21.93l-0.5633 3.25c-0.3098 1.788-3.83 29.58-7.822 61.75-6.72 54.16-7.425 58.67-9.503 60.75-2.171 2.176-2.868 2.25-21.33 2.25-18.47 0-19.16-0.0728-21.34-2.254zm108.6-21.65c-10.01-2.527-18.6-5.045-19.09-5.595-1.073-1.219-7.558-19.51-7.06-19.91 0.1951-0.1578 10.41-2.786 22.7-5.84 21.4-5.318 22.31-5.462 21.71-3.401-1.31 4.462-1.773 25.34-0.7114 32.1 0.6004 3.823 0.9948 7.016 0.8765 7.095-0.1183 0.0791-8.408-1.924-18.42-4.452zm239.5 0.0275c0.3924-2.543 0.7134-9.798 0.7134-16.12s-0.321-13.58-0.7134-16.12l-0.7134-4.623 27.21 6.816c29.12 7.294 30.72 8.021 30.72 13.93s-1.602 6.635-30.72 13.93l-27.21 6.816zm-173.8-9.942c0-4.937 5.324-18.5 10.02-25.52 5.581-8.344 10.4-13.04 19.25-18.76 5.85-3.781 19.61-8.906 23.91-8.906 1.915 0 2.025 0.3912 1.412 5.011-3.476 26.21-23.38 46.11-49.58 49.58-4.62 0.6128-5.011 0.5025-5.011-1.412zm113.3-0.1715c-3.947-1.035-8.672-2.648-10.5-3.586-17.36-8.902-28.87-25.22-31.44-44.56l-0.6848-5.162 4.256 0.6806c21.65 3.462 41.68 21.1 48.51 42.71 1.393 4.409 2.532 8.893 2.532 9.964 0 2.5-3.016 2.489-12.68-0.0427zm-302.8-31.34c-9.443-3.114-15.2-7.777-19.59-15.87l-3.414-6.296v-33l3.417-6.301c3.807-7.022 6.949-10.05 14.48-13.96 4.34-2.255 6.385-2.657 13.61-2.676 7.782-0.02 9.032 0.2648 14.8 3.373 6.84 3.688 11 8.215 14.48 15.74 2.002 4.337 2.229 6.41 2.229 20.33 0 14.63-0.1464 15.81-2.62 21.09-3.328 7.096-8.721 12.49-15.65 15.67-6.499 2.975-15.97 3.81-21.73 1.914zm145.6-62.07c-8.617-14.35-14.06-24.43-14.06-26.05 0-3.408 4.142-7.549 7.549-7.549 2.602 0 49.45 27.32 49.45 28.84 0 0.4001-1.442 1.579-3.204 2.62-4.15 2.451-19.88 18.18-22.33 22.33-1.041 1.762-2.22 3.204-2.62 3.204s-7.053-10.53-14.78-23.41zm196.7 20.52c-2.128-3.603-14.6-16.45-21.15-21.79l-4.922-4.01 23.58-14.16c14.46-8.685 24.6-14.16 26.22-14.16 1.47 0 3.728 1.088 5.095 2.455 1.367 1.367 2.455 3.625 2.455 5.095 0 2.602-27.32 49.45-28.84 49.45-0.4001 0-1.493-1.297-2.43-2.882zm-301.7-40.55c-6.8-7.016-20.97-12.57-32.07-12.57-7.155 0-16.03 2.323-22.72 5.949l-5.278 2.859v-9.949c0-9.23 0.1774-10.13 2.455-12.4l2.455-2.455h102.2l2.455 2.455c2.311 2.311 2.455 3.103 2.455 13.55 0 10.44-0.1436 11.23-2.455 13.55l-2.455 2.455h-43.7zm198-29.85c7.294-29.12 8.021-30.72 13.93-30.72s6.635 1.602 13.93 30.72l6.816 27.21-4.623-0.7134c-2.543-0.3924-9.798-0.7134-16.12-0.7134s-13.58 0.321-16.12 0.7134l-4.623 0.7134zm-225.9-17.28c-5.3-6.738-6.593-20.74-2.631-28.49 2.679-5.238 19.52-29.22 21.9-31.18 2.153-1.777 5.24-2.229 8-1.17 1.646 0.6315 20.02 26.39 23.08 32.35 3.97 7.735 2.679 21.75-2.624 28.49l-2.011 2.557h-43.71z" fill="#fffdff"/></g></svg>
